<svg width="157" height="70" viewBox="0 0 157 70" fill="none" xmlns="http://www.w3.org/2000/svg">
<path d="M132.963 49.4702C132.963 49.4702 133.438 48.2221 133.542 47.8562C133.646 47.4837 134.421 45.8305 132.415 45.8305H126.215L126.228 41.008H126.625L128.638 43.6479C129.256 44.4517 129.849 44.8633 130.39 44.896C130.93 44.9221 131.666 44.9352 132.585 44.9352H133.327L134.324 43.1709H132.806C132.213 43.1709 131.751 42.341 131.373 42.0012L130.631 41.0145H134.278V38.1131L126.215 38.1328L126.228 36.8128H129.439C130.963 36.8128 132.07 36.5318 132.748 35.9764C133.418 35.4209 133.861 34.7871 134.063 34.0813L134.369 32.8594H132.031L131.595 33.4736C131.464 33.6239 131.276 33.7481 131.054 33.833C130.826 33.918 130.455 33.9506 129.947 33.9506L115.019 33.9376L115.585 36.8128H122.32V38.1328L114.452 38.1131V41.0145H118.125L117.65 41.8836C117.233 42.4978 117.031 43.282 116.126 43.282H114.348V44.981H116.595C117.52 44.981 117.943 44.9418 118.36 44.8568C118.783 44.7588 119.2 44.5627 119.623 44.2622C120.04 43.9616 120.327 43.6806 120.49 43.4388L122.001 41.021H122.32V45.8435C122.32 45.8435 121.499 45.8762 121.239 45.8762C118.581 45.8762 117.337 48.0391 117.135 49.1435C116.946 50.189 117.083 51.2803 116.836 52.3062C116.634 53.1491 116.25 53.8679 115.442 53.8679H114.836L115.755 55.7695H116.399C119.552 55.7695 120.796 52.7571 121.447 50.2151C121.799 48.8363 122.444 48.7449 123.616 48.7449H128.162C128.032 49.0781 127.915 49.3852 127.83 49.6728C127.407 50.8947 128.052 51.4306 129.185 51.4306C130.181 51.4306 130.631 51.3587 130.631 51.9076C130.631 53.0577 129.146 53.1818 128.794 53.1622L125.108 53.2341L123.557 55.7695H128.788C132.279 55.7695 134.102 54.9592 134.545 52.2866C134.643 51.7246 134.695 51.0908 134.519 50.4634C134.317 49.7969 133.777 49.4767 132.963 49.4767V49.4702Z" fill="#003188"/>
<path d="M117.006 56.8225C115.463 56.8225 112.558 56.2279 113.085 54.2937C113.672 52.1177 114.043 49.6019 114.043 48.0793C114.043 42.538 112.512 40.5254 108.493 40.5254L108.48 44.8121C109.575 44.8121 110.07 45.5374 110.441 46.7267C111.281 49.432 110.441 54.5616 109.939 55.7051C109.425 56.8487 108.865 57.1885 108.865 57.1885C108.865 57.1885 108.819 59.3645 108.865 59.4168C109.965 59.2077 111.021 58.5869 111.718 57.6786C112.538 58.4693 114.049 59.2599 115.678 59.2599H134.182L135.908 56.816H117.006V56.8225Z" fill="#003188"/>
<path d="M76.7074 34.9967C76.4273 52.0846 63.3487 65.2125 46.3166 65.5C29.2779 65.2125 16.1863 52.078 15.9062 35.0033C16.1863 17.8632 29.2714 4.78752 46.3101 4.5C63.3422 4.78752 76.4208 17.9154 76.7009 34.9967H76.7074Z" fill="url(#paint0_radial_982_160646)"/>
<path d="M52.6529 22.4762C54.2291 21.411 56.2938 19.3396 56.1831 12.5371C60.0975 13.184 64.3572 16.4774 64.3572 16.4774C63.8817 19.1566 62.8071 24.1033 65.0346 25.4624C66.943 26.6191 67.2491 26.5145 69.2487 27.7495C71.9907 29.4485 75.7619 33.0164 75.7945 34.5324C75.7945 34.5324 75.8661 35.9373 75.6447 37.5056C74.3355 35.9373 69.9716 32.755 67.2947 32.5916C65.4124 32.474 65.3342 34.1861 66.1288 36.2771C69.2877 44.6936 68.923 51.3392 67.9981 56.7237C67.9525 56.9786 71.5674 56.8283 71.5674 56.8283L70.4797 59.2068C70.4797 59.2068 64.5917 59.0631 64.4419 58.9716C64.4419 58.9716 64.1814 58.573 64.253 57.8085C64.6438 53.744 66.1093 47.1375 59.9282 38.7472C54.1965 48.5686 47.4098 53.084 41.3329 55.8023C35.0411 58.6057 31.2895 56.8348 28.1306 54.1949C28.0784 54.1556 27.5053 52.6004 27.3359 51.9078C32.0646 54.7634 33.745 54.3582 35.966 53.561C42.5769 51.202 49.1553 41.178 51.3177 35.3688C52.9851 30.8992 52.5487 29.7034 48.2109 29.3178C42.4467 28.8212 35.4384 29.4093 31.055 30.3438L32.1167 24.2993C36.5522 23.1557 47.755 22.9466 49.8327 22.9989C51.0572 23.0251 51.969 22.927 52.6529 22.4696V22.4762Z" fill="#003188"/>
<path d="M113.492 36.4012C113.492 38.2243 112.02 39.7012 110.203 39.7012C108.386 39.7012 106.914 38.2243 106.914 36.4012C106.914 34.5781 108.38 33.0947 110.203 33.0947C112.027 33.0947 113.492 34.5781 113.492 36.4012Z" fill="url(#paint1_radial_982_160646)"/>
<path d="M99.1124 47.4907H103.913L105.691 44.0405H102.421C101.802 44.0405 101.47 43.8052 102.428 42.3807C103.072 41.4267 103.502 40.7993 103.88 40.3223C105.424 38.3423 104.571 37.1138 103.379 37.1138C102.675 37.1138 102.486 37.1335 101.926 37.1335C101.366 37.1335 101.184 36.6695 101.587 35.9899C101.92 35.4214 103.45 32.5527 103.45 32.5527H100.506C100.506 32.5527 98.9561 34.6046 97.9205 36.2121C96.7351 38.0418 96.937 40.1459 98.8715 40.1459H99.7963C99.7963 40.1459 98.2657 42.5114 97.4581 43.7007C96.657 44.8769 96.8849 47.5038 99.0929 47.5038L99.1124 47.4907Z" fill="#003188"/>
<path d="M80.8808 47.4907H86.1956L86.2412 44.0405H84.1961C83.5838 44.0405 83.2517 43.8052 84.2091 42.3807C84.8604 41.4267 85.2903 40.7993 85.6681 40.3223C87.2052 38.3423 86.3585 37.1138 85.1665 37.1138C84.4696 37.1138 84.2742 37.1335 83.7141 37.1335C83.154 37.1335 82.9716 36.6695 83.3689 35.9899C83.7076 35.4214 85.2317 32.5527 85.2317 32.5527H82.2942C82.2942 32.5527 80.7441 34.6046 79.7085 36.2121C78.5296 38.0418 78.725 40.1459 80.6594 40.1459H81.5908C81.5908 40.1459 80.0602 42.5114 79.2525 43.7007C78.4514 44.8769 78.6728 47.5038 80.8873 47.5038L80.8808 47.4907Z" fill="#003188"/>
<path d="M94.5017 47.4772C94.5017 47.4772 94.6124 47.4642 94.8078 47.4642C95.9802 47.4642 96.4361 46.2814 96.4361 45.164V38.4857C96.4361 35.9046 94.658 34.2905 92.3718 34.2905C91.3883 34.2905 92.2872 32.3955 92.2872 32.3955H89.4539C89.4539 32.3955 87.3632 34.3167 87.3632 36.5449C87.3632 37.4598 87.2655 47.5949 87.2655 47.5949H90.0662V49.1697H78.6484V52.3324H83.833L83.3249 54.6195C82.8104 56.1159 82.3154 57.0111 81.0062 57.0111H78.6484V59.2525H81.7097C82.4717 59.2525 83.1621 59.2133 83.7744 59.1545C84.3931 59.0891 84.9207 58.9192 85.3766 58.6186C85.826 58.3377 86.1908 57.9979 86.4578 57.6189C86.7249 57.2333 86.9854 56.2662 87.2068 55.4886L88.1838 52.3324H90.0531V59.4093H94.4886V52.3324H96.5012L98.3901 56.8805C98.6571 57.4882 98.9893 58.0305 99.3736 58.5141C99.7644 58.9911 100.709 59.2329 102.2 59.2329H104.044L105.372 57.0438H103.49C102.37 57.0438 101.959 55.5082 101.562 54.6195L100.833 52.3324H105.379V49.1697H94.4886V47.4707M92.7626 44.0727H90.75V42.4914H92.7626V44.0727ZM92.7626 39.675H90.75V38.0936H92.7626V39.675Z" fill="#003188"/>
<defs>
<radialGradient id="paint0_radial_982_160646" cx="0" cy="0" r="1" gradientUnits="userSpaceOnUse" gradientTransform="translate(39.4271 21.8334) scale(44.6487 44.7947)">
<stop stop-color="#FFD900"/>
<stop offset="0.39" stop-color="#FDD701"/>
<stop offset="0.52" stop-color="#F6D205"/>
<stop offset="0.62" stop-color="#EACA0D"/>
<stop offset="0.7" stop-color="#D9BE19"/>
<stop offset="0.77" stop-color="#C3AE27"/>
<stop offset="0.83" stop-color="#A89A39"/>
<stop offset="0.89" stop-color="#87834F"/>
<stop offset="0.94" stop-color="#626868"/>
<stop offset="0.98" stop-color="#394B84"/>
<stop offset="1" stop-color="#283F90"/>
</radialGradient>
<radialGradient id="paint1_radial_982_160646" cx="0" cy="0" r="1" gradientUnits="userSpaceOnUse" gradientTransform="translate(108.548 33.6323) scale(6.37619 5.49197)">
<stop stop-color="#E62F19"/>
<stop offset="0.25" stop-color="#E32E19"/>
<stop offset="0.4" stop-color="#DB2E1C"/>
<stop offset="0.52" stop-color="#CD2E20"/>
<stop offset="0.62" stop-color="#B82E26"/>
<stop offset="0.72" stop-color="#9E2D2E"/>
<stop offset="0.81" stop-color="#7E2C37"/>
<stop offset="0.89" stop-color="#582C43"/>
<stop offset="0.97" stop-color="#2D2B4F"/>
<stop offset="1" stop-color="#1D2B55"/>
</radialGradient>
</defs>
</svg>
